PathFileType	4	(X/Y/Z)	 control3min.trc
DataRate	CameraRate	NumFrames	NumMarkers	Units	OrigDataRate	OrigDataStartFrame	OrigNumFrames
200	200	11	35	m	200	126	1000
Frame#	Time	C7			LSH			RSH			MAN			RASI			LASI			HIPR			HIPL			RPSI			LPSI			COX			RTHI1			RTHI2			RTHI3			RTHI4			RSHA1			RSHA2			RSHA3			RSHA4			RHEEL			RMET5			RMET1			RTOE			LTHI1			LTHI2			LTHI3			LTHI4			LSHA1			LSHA2			LSHA3			LSHA4			LHEEL			LMET5			LMET1			LTOE			
		X1	Y1	Z1	X2	Y2	Z2	X3	Y3	Z3	X4	Y4	Z4	X5	Y5	Z5	X6	Y6	Z6	X7	Y7	Z7	X8	Y8	Z8	X9	Y9	Z9	X10	Y10	Z10	X11	Y11	Z11	X12	Y12	Z12	X13	Y13	Z13	X14	Y14	Z14	X15	Y15	Z15	X16	Y16	Z16	X17	Y17	Z17	X18	Y18	Z18	X19	Y19	Z19	X20	Y20	Z20	X21	Y21	Z21	X22	Y22	Z22	X23	Y23	Z23	X24	Y24	Z24	X25	Y25	Z25	X26	Y26	Z26	X27	Y27	Z27	X28	Y28	Z28	X29	Y29	Z29	X30	Y30	Z30	X31	Y31	Z31	X32	Y32	Z32	X33	Y33	Z33	X34	Y34	Z34	X35	Y35	Z35	
126	0.6300	-0.255293	1.433390	-0.533666	-0.184323	1.431348	-0.707213	-0.195694	1.404229	-0.362298	-0.129275	1.392283	-0.535587	-0.112462	0.993518	-0.424945	-0.100659	0.993892	-0.652499	-0.164382	1.042802	-0.401354	-0.153918	1.040291	-0.679338	-0.265820	1.024766	-0.486762	-0.258989	1.025967	-0.599654	-0.268030	1.027348	-0.543220	-0.205120	0.779761	-0.375639	-0.177985	0.726591	-0.370820	-0.119622	0.752423	-0.361341	-0.139206	0.810716	-0.364072	-0.220671	0.372584	-0.367191	-0.235438	0.333272	-0.378347	-0.177225	0.318316	-0.376352	-0.166037	0.357003	-0.371029	-0.319241	0.138968	-0.428888	-0.183503	0.054557	-0.383117	-0.160525	0.056023	-0.443055	-0.136038	0.045021	-0.437743	-0.171899	0.800017	-0.717205	-0.149882	0.742458	-0.716165	-0.087992	0.760384	-0.706216	-0.102501	0.818254	-0.707000	-0.210600	0.378139	-0.719921	-0.229359	0.342435	-0.718082	-0.170953	0.320072	-0.710883	-0.159315	0.362621	-0.714271	-0.329400	0.129791	-0.674984	-0.192752	0.055039	-0.714193	-0.163188	0.054861	-0.650392	-0.141536	0.045978	-0.655276	
127	0.6350	-0.255080	1.430467	-0.534010	-0.184162	1.427986	-0.707548	-0.195830	1.400908	-0.362458	-0.129159	1.389013	-0.535750	-0.112649	0.990420	-0.425148	-0.101014	0.990981	-0.652848	-0.164695	1.039495	-0.401548	-0.154334	1.037203	-0.679586	-0.266289	1.021160	-0.486918	-0.259472	1.022502	-0.599826	-0.268506	1.023824	-0.543392	-0.203980	0.776476	-0.375430	-0.176562	0.723447	-0.370865	-0.118228	0.749539	-0.361938	-0.138102	0.807724	-0.364393	-0.220030	0.370378	-0.367663	-0.235213	0.331135	-0.378840	-0.177091	0.315645	-0.377263	-0.165562	0.354221	-0.371811	-0.320699	0.137541	-0.429813	-0.185417	0.052108	-0.384928	-0.162592	0.053698	-0.444937	-0.138115	0.042544	-0.439790	-0.170687	0.797208	-0.717735	-0.148523	0.739688	-0.716319	-0.086820	0.757777	-0.705575	-0.101479	0.815632	-0.706556	-0.210061	0.375599	-0.720338	-0.229062	0.340014	-0.718497	-0.170848	0.317329	-0.710810	-0.158919	0.359790	-0.714287	-0.330730	0.128260	-0.675303	-0.194471	0.052211	-0.713266	-0.165213	0.052291	-0.649330	-0.143597	0.043211	-0.654011	
128	0.6400	-0.254903	1.427163	-0.534271	-0.183986	1.424392	-0.707861	-0.195917	1.397380	-0.362638	-0.129022	1.385502	-0.535918	-0.112834	0.987065	-0.425346	-0.101358	0.987822	-0.653191	-0.165017	1.035934	-0.401736	-0.154742	1.033880	-0.679836	-0.266734	1.017332	-0.487077	-0.259939	1.018833	-0.600008	-0.268954	1.020086	-0.543566	-0.202900	0.772913	-0.375240	-0.175202	0.720031	-0.370909	-0.116904	0.746392	-0.362521	-0.137076	0.804455	-0.364756	-0.219379	0.367876	-0.368170	-0.234974	0.328721	-0.379339	-0.176938	0.312712	-0.378180	-0.165078	0.351160	-0.372657	-0.322063	0.135855	-0.430788	-0.187357	0.049344	-0.386669	-0.164581	0.051131	-0.446838	-0.140127	0.039871	-0.441826	-0.169472	0.794144	-0.718250	-0.147171	0.736668	-0.716468	-0.085666	0.754908	-0.704939	-0.100464	0.812756	-0.706147	-0.209522	0.372819	-0.720748	-0.228765	0.337359	-0.718903	-0.170750	0.314345	-0.710744	-0.158527	0.356716	-0.714312	-0.332044	0.126516	-0.675560	-0.196264	0.049133	-0.712428	-0.167225	0.049515	-0.648282	-0.145639	0.040281	-0.652754	
129	0.6450	-0.254857	1.423653	-0.534552	-0.183799	1.420569	-0.708158	-0.195946	1.393645	-0.362830	-0.128865	1.381753	-0.536094	-0.113014	0.983459	-0.425534	-0.101689	0.984411	-0.653527	-0.165337	1.032129	-0.401921	-0.155145	1.030316	-0.680089	-0.267146	1.013289	-0.487247	-0.260378	1.014954	-0.600192	-0.269377	1.016129	-0.543736	-0.201907	0.769074	-0.375085	-0.173933	0.716342	-0.370961	-0.115685	0.742977	-0.363082	-0.136159	0.800918	-0.365150	-0.218732	0.365064	-0.368688	-0.234722	0.326025	-0.379835	-0.176777	0.309528	-0.379076	-0.164593	0.347837	-0.373493	-0.323353	0.133857	-0.431850	-0.189257	0.046360	-0.388166	-0.166361	0.048471	-0.448755	-0.141929	0.037157	-0.443916	-0.168292	0.790816	-0.718764	-0.145856	0.733386	-0.716627	-0.084558	0.751770	-0.704329	-0.099490	0.809622	-0.705785	-0.208989	0.369808	-0.721146	-0.228474	0.334470	-0.719299	-0.170667	0.311130	-0.710702	-0.158147	0.353406	-0.714352	-0.333371	0.124510	-0.675757	-0.198068	0.045928	-0.711790	-0.169108	0.046708	-0.647258	-0.147513	0.037375	-0.651458	
130	0.6500	-0.254662	1.419930	-0.534755	-0.183599	1.416523	-0.708439	-0.195913	1.389701	-0.363030	-0.128703	1.377753	-0.536278	-0.113186	0.979607	-0.425711	-0.102006	0.980753	-0.653856	-0.165654	1.028080	-0.402099	-0.155543	1.026513	-0.680348	-0.267525	1.009038	-0.487424	-0.260787	1.010872	-0.600376	-0.269769	1.011956	-0.543899	-0.201035	0.764953	-0.374968	-0.172782	0.712380	-0.371014	-0.114601	0.739287	-0.363602	-0.135383	0.797106	-0.365566	-0.218114	0.361928	-0.369258	-0.234468	0.323046	-0.380341	-0.176612	0.306079	-0.379962	-0.164122	0.344248	-0.374363	-0.324579	0.131478	-0.433002	-0.191007	0.043315	-0.389236	-0.167806	0.045873	-0.450571	-0.143375	0.034592	-0.445986	-0.167180	0.787216	-0.719279	-0.144609	0.729842	-0.716813	-0.083528	0.748359	-0.703771	-0.098583	0.806219	-0.705477	-0.208476	0.366574	-0.721531	-0.228205	0.331354	-0.719683	-0.170605	0.307677	-0.710691	-0.157787	0.349862	-0.714413	-0.334754	0.122184	-0.675903	-0.199772	0.042790	-0.711474	-0.170735	0.044043	-0.646342	-0.149081	0.034685	-0.650186	
131	0.6550	-0.254295	1.416032	-0.534888	-0.183385	1.412260	-0.708704	-0.195822	1.385550	-0.363235	-0.128525	1.373517	-0.536471	-0.113347	0.975511	-0.425875	-0.102306	0.976853	-0.654180	-0.165972	1.023797	-0.402264	-0.155935	1.022475	-0.680614	-0.267868	1.004593	-0.487608	-0.261164	1.006591	-0.600557	-0.270131	1.007578	-0.544050	-0.200308	0.760557	-0.374903	-0.171792	0.708132	-0.371064	-0.113675	0.735317	-0.364069	-0.134763	0.793024	-0.365962	-0.217547	0.358485	-0.369846	-0.234243	0.319759	-0.380882	-0.176471	0.302368	-0.380827	-0.163695	0.340392	-0.375235	-0.325882	0.128767	-0.434224	-0.192475	0.040379	-0.389742	-0.168841	0.043532	-0.452137	-0.144364	0.032386	-0.447930	-0.166168	0.783335	-0.719800	-0.143461	0.726025	-0.717046	-0.082594	0.744678	-0.703302	-0.097773	0.802533	-0.705239	-0.207998	0.363128	-0.721900	-0.227975	0.328029	-0.720058	-0.170581	0.304011	-0.710722	-0.157469	0.346095	-0.714500	-0.336254	0.119515	-0.676007	-0.201260	0.039910	-0.711547	-0.172022	0.041715	-0.645606	-0.150237	0.032407	-0.648969	
132	0.6600	-0.254190	1.411640	-0.535285	-0.183157	1.407791	-0.708956	-0.195683	1.381184	-0.363444	-0.128345	1.369043	-0.536670	-0.113493	0.971170	-0.426027	-0.102587	0.972721	-0.654493	-0.166289	1.019285	-0.402405	-0.156321	1.018202	-0.680891	-0.268185	0.999964	-0.487792	-0.261529	1.002119	-0.600749	-0.270462	1.003012	-0.544202	-0.199745	0.755895	-0.374899	-0.170969	0.703601	-0.371126	-0.112939	0.731068	-0.364462	-0.134311	0.788665	-0.366324	-0.217071	0.354733	-0.370439	-0.234076	0.316182	-0.381458	-0.176385	0.298402	-0.381681	-0.163347	0.336297	-0.376060	-0.327322	0.125769	-0.435491	-0.193608	0.037755	-0.389628	-0.169468	0.041632	-0.453372	-0.144843	0.030740	-0.449705	-0.165286	0.779173	-0.720328	-0.142441	0.721929	-0.717348	-0.081786	0.740730	-0.702963	-0.097093	0.798563	-0.705084	-0.207583	0.359468	-0.722245	-0.227809	0.324515	-0.720419	-0.170623	0.300130	-0.710787	-0.157214	0.342117	-0.714606	-0.337931	0.116504	-0.676071	-0.202479	0.037457	-0.712044	-0.172922	0.039925	-0.645081	-0.150916	0.030749	-0.647819	
133	0.6650	-0.254048	1.407312	-0.535536	-0.182915	1.403125	-0.709199	-0.195502	1.376614	-0.363661	-0.128171	1.364338	-0.536874	-0.113622	0.966598	-0.426165	-0.102850	0.968367	-0.654798	-0.166570	1.014559	-0.402531	-0.156702	1.013701	-0.681187	-0.268485	0.995160	-0.487967	-0.261880	0.997463	-0.600941	-0.270777	0.998271	-0.544349	-0.199354	0.750982	-0.374981	-0.170340	0.698811	-0.371213	-0.112405	0.726540	-0.364755	-0.134044	0.784045	-0.366628	-0.216719	0.350726	-0.371047	-0.234004	0.312330	-0.382096	-0.176393	0.294209	-0.382527	-0.163118	0.331984	-0.376833	-0.328999	0.122592	-0.436834	-0.194471	0.035595	-0.388920	-0.169740	0.040265	-0.454123	-0.144885	0.029582	-0.451114	-0.164565	0.774735	-0.720876	-0.141580	0.717561	-0.717731	-0.081117	0.736510	-0.702794	-0.096559	0.794306	-0.705027	-0.207254	0.355630	-0.722557	-0.227738	0.320821	-0.720756	-0.170759	0.296052	-0.710875	-0.157046	0.337936	-0.714717	-0.339820	0.113215	-0.676128	-0.203431	0.035566	-0.712923	-0.173477	0.038713	-0.644888	-0.151173	0.029636	-0.646905	
134	0.6700	-0.253908	1.402628	-0.535752	-0.182656	1.398275	-0.709435	-0.195291	1.371850	-0.363890	-0.127998	1.359421	-0.537083	-0.113737	0.961804	-0.426292	-0.103100	0.963806	-0.655097	-0.166817	1.009625	-0.402629	-0.157074	1.008981	-0.681509	-0.268785	0.990201	-0.488127	-0.262236	0.992633	-0.601138	-0.271079	0.993366	-0.544492	-0.199139	0.745839	-0.375156	-0.169909	0.693772	-0.371336	-0.112080	0.721743	-0.364923	-0.133959	0.779175	-0.366852	-0.216510	0.346515	-0.371675	-0.234056	0.308268	-0.382798	-0.176522	0.289826	-0.383373	-0.163033	0.327473	-0.377588	-0.330894	0.119338	-0.438109	-0.195157	0.033933	-0.387880	-0.169896	0.039367	-0.454299	-0.144690	0.028861	-0.451955	-0.164024	0.770025	-0.721438	-0.140895	0.712921	-0.718207	-0.080595	0.732020	-0.702834	-0.096181	0.789760	-0.705100	-0.207030	0.351633	-0.722806	-0.227787	0.316989	-0.721042	-0.171023	0.291795	-0.710968	-0.156988	0.333563	-0.714814	-0.341902	0.109772	-0.676220	-0.204180	0.034223	-0.713989	-0.173841	0.037973	-0.645045	-0.151200	0.028959	-0.646364	
135	0.6750	-0.253776	1.397651	-0.535944	-0.182381	1.393256	-0.709669	-0.195053	1.366908	-0.364130	-0.127827	1.354304	-0.537296	-0.113840	0.956805	-0.426403	-0.103341	0.959054	-0.655395	-0.167035	1.004499	-0.402688	-0.157437	1.004053	-0.681862	-0.269103	0.985096	-0.488271	-0.262613	0.987633	-0.601345	-0.271384	0.988319	-0.544630	-0.199079	0.740501	-0.375446	-0.169673	0.688513	-0.371512	-0.111961	0.716700	-0.364960	-0.134038	0.774074	-0.366983	-0.216461	0.342188	-0.372319	-0.234244	0.304061	-0.383533	-0.176796	0.285318	-0.384189	-0.163111	0.322833	-0.378311	-0.333045	0.116156	-0.439222	-0.195822	0.032696	-0.386800	-0.170140	0.038871	-0.454094	-0.144452	0.028479	-0.452346	-0.163674	0.765050	-0.722008	-0.140399	0.708013	-0.718780	-0.080218	0.727266	-0.703115	-0.095962	0.784945	-0.705338	-0.206917	0.347518	-0.722967	-0.227969	0.313064	-0.721246	-0.171439	0.287389	-0.711043	-0.157053	0.329029	-0.714875	-0.344125	0.106300	-0.676340	-0.204858	0.033273	-0.715048	-0.174179	0.037598	-0.645404	-0.151158	0.028595	-0.646072	
136	0.6800	-0.253656	1.392443	-0.536125	-0.182091	1.388082	-0.709914	-0.194784	1.361811	-0.364382	-0.127649	1.348965	-0.537527	-0.113940	0.951624	-0.426496	-0.103580	0.954126	-0.655700	-0.167227	0.999188	-0.402698	-0.157793	0.998930	-0.682257	-0.269459	0.979854	-0.488393	-0.263030	0.982473	-0.601567	-0.271711	0.983142	-0.544771	-0.199157	0.735000	-0.375854	-0.169609	0.683090	-0.371768	-0.112034	0.711436	-0.364859	-0.134244	0.768769	-0.367028	-0.216549	0.337822	-0.372959	-0.234555	0.299823	-0.384284	-0.177213	0.280741	-0.384953	-0.163334	0.318149	-0.378980	-0.335211	0.112978	-0.440190	-0.196626	0.031808	-0.385911	-0.170568	0.038661	-0.453768	-0.144290	0.028308	-0.452467	-0.163522	0.759824	-0.722576	-0.140093	0.702853	-0.719439	-0.079990	0.722254	-0.703659	-0.095897	0.779873	-0.705762	-0.206910	0.343322	-0.723023	-0.228277	0.309090	-0.721343	-0.172000	0.282866	-0.711091	-0.157231	0.324374	-0.714890	-0.346414	0.102863	-0.676463	-0.205597	0.032559	-0.715983	-0.174564	0.037457	-0.645821	-0.151146	0.028414	-0.645954	
